<svg xmlns="http://www.w3.org/2000/svg" version="1.1" xmlns:xlink="http://www.w3.org/1999/xlink" xmlns:svgjs="http://svgjs.dev/svgjs" width="1440" height="1440" preserveAspectRatio="none" viewBox="0 0 1440 1440"><g mask="url(&quot;#SvgjsMask1027&quot;)" fill="none"><rect width="1440" height="1440" x="0" y="0" fill="rgba(166, 9, 16, 1)"></rect><path d="M0,503.254C94.999,490.211,186.027,466.693,268.65,418.027C353.867,367.833,418.669,296.359,481.26,219.784C563.575,119.077,694.135,30.605,691.615,-99.439C689.116,-228.426,576.688,-335.267,469.125,-406.499C373.389,-469.899,248.562,-439.374,137.036,-466.703C32.395,-492.345,-58.666,-579.309,-164.985,-561.887C-274.45,-543.949,-350.284,-449.522,-431.151,-373.595C-520.862,-289.364,-639.397,-216.143,-662.046,-95.188C-684.826,26.467,-609.632,142.935,-547.967,250.248C-490.854,349.638,-424.718,450.882,-320.645,498.934C-221.592,544.668,-108.087,518.094,0,503.254" fill="#7d070c"></path><path d="M1440 2018.667C1546.52 2012.989 1620.664 1917.9 1714.359 1866.91 1817.368 1810.851 1945.436 1796.0439999999999 2018.1480000000001 1704.031 2098.333 1602.561 2143.507 1469.409 2130.132 1340.774 2116.56 1210.238 2040.062 1092.932 1945.183 1002.2570000000001 1855.2640000000001 916.322 1737.47 862.318 1613.977 847.488 1501.019 833.923 1395.752 885.975 1288.305 923.375 1186.312 958.877 1082.286 988.235 1002.028 1060.495 914.789 1139.04 823.861 1233.046 814.405 1350.0529999999999 805.04 1465.935 893.12 1562.812 953.4010000000001 1662.223 1007.0160000000001 1750.642 1062.76 1836.089 1146.179 1897.195 1233.442 1961.117 1331.982 2024.424 1440 2018.667" fill="#d00b14"></path></g><defs><mask id="SvgjsMask1027"><rect width="1440" height="1440" fill="#ffffff"></rect></mask></defs></svg>