<svg xmlns="http://www.w3.org/2000/svg" version="1.1" xmlns:xlink="http://www.w3.org/1999/xlink" xmlns:svgjs="http://svgjs.dev/svgjs" width="1440" height="1440" preserveAspectRatio="none" viewBox="0 0 1440 1440"><g mask="url(&quot;#SvgjsMask1149&quot;)" fill="none"><rect width="1440" height="1440" x="0" y="0" fill="rgba(40, 77, 58, 1)"></rect><path d="M 0,581 C 57.6,630.6 172.8,931.6 288,829 C 403.2,726.4 460.8,65.8 576,68 C 691.2,70.2 748.8,757.8 864,840 C 979.2,922.2 1036.8,368.4 1152,479 C 1267.2,589.6 1382.4,1210.2 1440,1393L1440 1440L0 1440z" fill="rgba(61, 142, 99, 1)"></path><path d="M 0,1127 C 96,1045.4 288,792 480,719 C 672,646 768,801.2 960,762 C 1152,722.8 1344,570.8 1440,523L1440 1440L0 1440z" fill="rgba(39, 174, 96, 1)"></path></g><defs><mask id="SvgjsMask1149"><rect width="1440" height="1440" fill="#ffffff"></rect></mask></defs></svg>